REM DIRINDEX 1\2,1\3,1\4,1\5
REM DIRNAME folder01,folder02,folder03,folder04,folder05
TITLE ""
FILE "CD2Track12.mp3" MP3
  TRACK 01 AUDIO
    TITLE "5:cjc154_2715"
    INDEX 01 00:00:00
  TRACK 02 AUDIO
    TITLE "0:"
    INDEX 01 00:01:42
  TRACK 03 AUDIO
    TITLE "2:cjc154_2716"
    INDEX 01 00:02:47
  TRACK 04 AUDIO
    TITLE "3:cjc154_2717"
    INDEX 01 00:04:31
  TRACK 05 AUDIO
    TITLE "2:cjc154_2718"
    INDEX 01 00:06:22
  TRACK 06 AUDIO
    TITLE "3:cjc154_2719"
    INDEX 01 00:09:06
  TRACK 07 AUDIO
    TITLE "2:cjc154_2720"
    INDEX 01 00:11:74
  TRACK 08 AUDIO
    TITLE "3:cjc154_2721"
    INDEX 01 00:13:51
  TRACK 09 AUDIO
    TITLE "2:cjc154_2722"
    INDEX 01 00:15:34
  TRACK 10 AUDIO
    TITLE "3:cjc154_2723"
    INDEX 01 00:17:31
  TRACK 11 AUDIO
    TITLE "2:cjc154_2724"
    INDEX 01 00:19:30
  TRACK 12 AUDIO
    TITLE "3:cjc154_2725"
    INDEX 01 00:21:57
  TRACK 13 AUDIO
    TITLE "2:cjc154_2726"
    INDEX 01 00:24:08
  TRACK 14 AUDIO
    TITLE "3:cjc154_2727"
    INDEX 01 00:25:46
  TRACK 15 AUDIO
    TITLE "2:cjc154_2728"
    INDEX 01 00:27:10
  TRACK 16 AUDIO
    TITLE "3:cjc154_2729"
    INDEX 01 00:28:12
  TRACK 17 AUDIO
    TITLE "2:cjc154_2730"
    INDEX 01 00:29:15
  TRACK 18 AUDIO
    TITLE "3:cjc154_2731"
    INDEX 01 00:31:02
  TRACK 19 AUDIO
    TITLE "2:cjc154_2732"
    INDEX 01 00:32:64
  TRACK 20 AUDIO
    TITLE "3:cjc154_2733"
    INDEX 01 00:34:22
  TRACK 21 AUDIO
    TITLE "2:cjc154_2734"
    INDEX 01 00:35:59
  TRACK 22 AUDIO
    TITLE "3:cjc154_2735"
    INDEX 01 00:37:63
  TRACK 23 AUDIO
    TITLE "2:cjc154_2736"
    INDEX 01 00:40:01
  TRACK 24 AUDIO
    TITLE "3:cjc154_2737"
    INDEX 01 00:41:14
  TRACK 25 AUDIO
    TITLE "2:cjc154_2738"
    INDEX 01 00:42:35
  TRACK 26 AUDIO
    TITLE "3:cjc154_2739"
    INDEX 01 00:45:08
  TRACK 27 AUDIO
    TITLE "2:cjc154_2740"
    INDEX 01 00:47:66
  TRACK 28 AUDIO
    TITLE "3:cjc154_2741"
    INDEX 01 00:49:39
  TRACK 29 AUDIO
    TITLE "2:cjc154_2742"
    INDEX 01 00:51:15
  TRACK 30 AUDIO
    TITLE "3:cjc154_2743"
    INDEX 01 00:53:15
  TRACK 31 AUDIO
    TITLE "2:cjc154_2744"
    INDEX 01 00:55:22
  TRACK 32 AUDIO
    TITLE "3:cjc154_2745"
    INDEX 01 00:57:41
  TRACK 33 AUDIO
    TITLE "2:cjc154_2746"
    INDEX 01 00:59:65
  TRACK 34 AUDIO
    TITLE "3:cjc154_2747"
    INDEX 01 01:01:09
  TRACK 35 AUDIO
    TITLE "2:cjc154_2748"
    INDEX 01 01:02:34
  TRACK 36 AUDIO
    TITLE "3:cjc154_2749"
    INDEX 01 01:04:58
  TRACK 37 AUDIO
    TITLE "2:cjc154_2750"
    INDEX 01 01:07:19
  TRACK 38 AUDIO
    TITLE "3:cjc154_2751"
    INDEX 01 01:09:14
  TRACK 39 AUDIO
    TITLE "2:cjc154_2752"
    INDEX 01 01:11:17
  TRACK 40 AUDIO
    TITLE "3:cjc154_2753"
    INDEX 01 01:13:16
  TRACK 41 AUDIO
    TITLE "2:cjc154_2754"
    INDEX 01 01:15:17
  TRACK 42 AUDIO
    TITLE "3:cjc154_2755"
    INDEX 01 01:17:53
  TRACK 43 AUDIO
    TITLE "2:cjc154_2756"
    INDEX 01 01:20:20
  TRACK 44 AUDIO
    TITLE "3:cjc154_2757"
    INDEX 01 01:21:43
  TRACK 45 AUDIO
    TITLE "2:cjc154_2758"
    INDEX 01 01:23:01
  TRACK 46 AUDIO
    TITLE "3:cjc154_2759"
    INDEX 01 01:24:61
  TRACK 47 AUDIO
    TITLE "2:cjc154_2760"
    INDEX 01 01:26:48
  TRACK 48 AUDIO
    TITLE "3:cjc154_2761"
    INDEX 01 01:28:02
  TRACK 49 AUDIO
    TITLE "2:cjc154_2762"
    INDEX 01 01:29:46
  TRACK 50 AUDIO
    TITLE "3:cjc154_2763"
    INDEX 01 01:31:67
  TRACK 51 AUDIO
    TITLE "2:cjc154_2764"
    INDEX 01 01:34:16
  TRACK 52 AUDIO
    TITLE "3:cjc154_2765"
    INDEX 01 01:35:57
  TRACK 53 AUDIO
    TITLE "2:cjc154_2766"
    INDEX 01 01:37:28
  TRACK 54 AUDIO
    TITLE "3:cjc154_2767"
    INDEX 01 01:39:04
  TRACK 55 AUDIO
    TITLE "2:cjc154_2768"
    INDEX 01 01:40:60
  TRACK 56 AUDIO
    TITLE "3:cjc154_2769"
    INDEX 01 01:42:12
  TRACK 57 AUDIO
    TITLE "2:cjc154_2770"
    INDEX 01 01:43:51
  TRACK 58 AUDIO
    TITLE "3:cjc154_2771"
    INDEX 01 01:46:33
  TRACK 59 AUDIO
    TITLE "2:cjc154_2772"
    INDEX 01 01:49:28
  TRACK 60 AUDIO
    TITLE "3:cjc154_2773"
    INDEX 01 01:51:13
  TRACK 61 AUDIO
    TITLE "2:cjc154_2774"
    INDEX 01 01:53:04
  TRACK 62 AUDIO
    TITLE "3:cjc154_2775"
    INDEX 01 01:56:14
  TRACK 63 AUDIO
    TITLE "2:cjc154_2776"
    INDEX 01 01:59:32
  TRACK 64 AUDIO
    TITLE "3:cjc154_2777"
    INDEX 01 02:01:29
  TRACK 65 AUDIO
    TITLE "2:cjc154_2778"
    INDEX 01 02:03:38
  TRACK 66 AUDIO
    TITLE "3:cjc154_2779"
    INDEX 01 02:06:01
  TRACK 67 AUDIO
    TITLE "2:cjc154_2780"
    INDEX 01 02:08:47
  TRACK 68 AUDIO
    TITLE "3:cjc154_2781"
    INDEX 01 02:09:68
  TRACK 69 AUDIO
    TITLE "2:cjc154_2782"
    INDEX 01 02:11:25
  TRACK 70 AUDIO
    TITLE "3:cjc154_2783"
    INDEX 01 02:12:38
  TRACK 71 AUDIO
    TITLE "2:cjc154_2784"
    INDEX 01 02:13:57
  TRACK 72 AUDIO
    TITLE "3:cjc154_2785"
    INDEX 01 02:15:70
  TRACK 73 AUDIO
    TITLE "2:cjc154_2786"
    INDEX 01 02:18:18
  TRACK 74 AUDIO
    TITLE "3:cjc154_2787"
    INDEX 01 02:20:01
  TRACK 75 AUDIO
    TITLE "2:cjc154_2788"
    INDEX 01 02:21:69
  TRACK 76 AUDIO
    TITLE "3:cjc154_2789"
    INDEX 01 02:24:51
  TRACK 77 AUDIO
    TITLE "2:cjc154_2790"
    INDEX 01 02:27:42
  TRACK 78 AUDIO
    TITLE "3:cjc154_2791"
    INDEX 01 02:29:58
  TRACK 79 AUDIO
    TITLE "2:cjc154_2792"
    INDEX 01 02:32:22
  TRACK 80 AUDIO
    TITLE "3:cjc154_2793"
    INDEX 01 02:34:66
  TRACK 81 AUDIO
    TITLE "2:cjc154_2794"
    INDEX 01 02:37:46
  TRACK 82 AUDIO
    TITLE "3:cjc154_2795"
    INDEX 01 02:39:26
  TRACK 83 AUDIO
    TITLE "2:cjc154_2796"
    INDEX 01 02:41:15
  TRACK 84 AUDIO
    TITLE "3:cjc154_2797"
    INDEX 01 02:42:42
  TRACK 85 AUDIO
    TITLE "2:cjc154_2798"
    INDEX 01 02:44:03
  TRACK 86 AUDIO
    TITLE "3:cjc154_2799"
    INDEX 01 02:46:18
  TRACK 87 AUDIO
    TITLE "2:cjc154_2800"
    INDEX 01 02:48:32
  TRACK 88 AUDIO
    TITLE "3:cjc154_2801"
    INDEX 01 02:50:41
  TRACK 89 AUDIO
    TITLE "2:cjc154_2802"
    INDEX 01 02:52:54
  TRACK 90 AUDIO
    TITLE "3:cjc154_2803"
    INDEX 01 02:54:15
  TRACK 91 AUDIO
    TITLE "2:cjc154_2804"
    INDEX 01 02:55:64
  TRACK 92 AUDIO
    TITLE "3:cjc154_2805"
    INDEX 01 02:57:72
  TRACK 93 AUDIO
    TITLE "2:cjc154_2806"
    INDEX 01 03:00:14
  TRACK 94 AUDIO
    TITLE "3:cjc154_2807"
    INDEX 01 03:01:74
  TRACK 95 AUDIO
    TITLE "2:cjc154_2808"
    INDEX 01 03:03:67
  TRACK 96 AUDIO
    TITLE "3:cjc154_2809"
    INDEX 01 03:05:35
  TRACK 97 AUDIO
    TITLE "2:cjc154_2810"
    INDEX 01 03:07:12
  TRACK 98 AUDIO
    TITLE "3:cjc154_2811"
    INDEX 01 03:08:17
  TRACK 99 AUDIO
    TITLE "2:cjc154_2812"
    INDEX 01 03:09:31
  TRACK 100 AUDIO
    TITLE "3:cjc154_2813"
    INDEX 01 03:11:27
  TRACK 101 AUDIO
    TITLE "2:cjc154_2814"
    INDEX 01 03:13:40
  TRACK 102 AUDIO
    TITLE "3:cjc154_2815"
    INDEX 01 03:15:39
  TRACK 103 AUDIO
    TITLE "2:cjc154_2816"
    INDEX 01 03:17:42
  TRACK 104 AUDIO
    TITLE "3:cjc154_2817"
    INDEX 01 03:19:56
  TRACK 105 AUDIO
    TITLE "2:cjc154_2818"
    INDEX 01 03:22:00
  TRACK 106 AUDIO
    TITLE "3:cjc154_2819"
    INDEX 01 03:23:25
  TRACK 107 AUDIO
    TITLE "2:cjc154_2820"
    INDEX 01 03:24:60
  TRACK 108 AUDIO
    TITLE "3:cjc154_2821"
    INDEX 01 03:26:27
  TRACK 109 AUDIO
    TITLE "2:cjc154_2822"
    INDEX 01 03:28:10
  TRACK 110 AUDIO
    TITLE "3:cjc154_2823"
    INDEX 01 03:30:23
  TRACK 111 AUDIO
    TITLE "2:cjc154_2824"
    INDEX 01 03:32:41
  TRACK 112 AUDIO
    TITLE "3:cjc154_2825"
    INDEX 01 03:33:74
  TRACK 113 AUDIO
    TITLE "2:cjc154_2826"
    INDEX 01 03:35:40
  TRACK 114 AUDIO
    TITLE "3:cjc154_2827"
    INDEX 01 03:36:49
  TRACK 115 AUDIO
    TITLE "2:cjc154_2828"
    INDEX 01 03:37:66
  TRACK 116 AUDIO
    TITLE "3:cjc154_2829"
    INDEX 01 03:39:28
  TRACK 117 AUDIO
    TITLE "2:cjc154_2830"
    INDEX 01 03:40:68
  TRACK 118 AUDIO
    TITLE "3:cjc154_2831"
    INDEX 01 03:42:10
  TRACK 119 AUDIO
    TITLE "2:cjc154_2832"
    INDEX 01 03:43:33
  TRACK 120 AUDIO
    TITLE "3:cjc154_2833"
    INDEX 01 03:45:24
  TRACK 121 AUDIO
    TITLE "2:cjc154_2834"
    INDEX 01 03:47:19
  TRACK 122 AUDIO
    TITLE "3:cjc154_2835"
    INDEX 01 03:48:54
  TRACK 123 AUDIO
    TITLE "2:cjc154_2836"
    INDEX 01 03:50:18
  TRACK 124 AUDIO
    TITLE "3:cjc154_2837"
    INDEX 01 03:51:64
  TRACK 125 AUDIO
    TITLE "2:cjc154_2838"
    INDEX 01 03:53:47
  TRACK 126 AUDIO
    TITLE "3:cjc154_2839"
    INDEX 01 03:55:40
  TRACK 127 AUDIO
    TITLE "2:cjc154_2840"
    INDEX 01 03:57:41
  TRACK 128 AUDIO
    TITLE "3:cjc154_2841"
    INDEX 01 03:59:05
  TRACK 129 AUDIO
    TITLE "2:cjc154_2842"
    INDEX 01 04:00:49
  TRACK 130 AUDIO
    TITLE "3:cjc154_2843"
    INDEX 01 04:02:46
  TRACK 131 AUDIO
    TITLE "2:cjc154_2844"
    INDEX 01 04:04:51
  TRACK 132 AUDIO
    TITLE "3:cjc154_2845"
    INDEX 01 04:06:03
  TRACK 133 AUDIO
    TITLE "2:cjc154_2846"
    INDEX 01 04:07:38
  TRACK 134 AUDIO
    TITLE "3:cjc154_2847"
    INDEX 01 04:09:46
  TRACK 135 AUDIO
    TITLE "2:cjc154_2848"
    INDEX 01 04:11:63
  TRACK 136 AUDIO
    TITLE "3:cjc154_2849"
    INDEX 01 04:13:23
  TRACK 137 AUDIO
    TITLE "2:cjc154_2850"
    INDEX 01 04:14:67
  TRACK 138 AUDIO
    TITLE "3:cjc154_2851"
    INDEX 01 04:16:58
  TRACK 139 AUDIO
    TITLE "2:cjc154_2852"
    INDEX 01 04:18:61
  TRACK 140 AUDIO
    TITLE "3:cjc154_2853"
    INDEX 01 04:21:09
  TRACK 141 AUDIO
    TITLE "2:cjc154_2854"
    INDEX 01 04:23:39
  TRACK 142 AUDIO
    TITLE "3:cjc154_2855"
    INDEX 01 04:24:56
  TRACK 143 AUDIO
    TITLE "2:cjc154_2856"
    INDEX 01 04:26:04
  TRACK 144 AUDIO
    TITLE "3:cjc154_2857"
    INDEX 01 04:27:72
  TRACK 145 AUDIO
    TITLE "2:cjc154_2858"
    INDEX 01 04:30:02
  TRACK 146 AUDIO
    TITLE "3:cjc154_2859"
    INDEX 01 04:31:68
  TRACK 147 AUDIO
    TITLE "2:cjc154_2860"
    INDEX 01 04:33:59
  TRACK 148 AUDIO
    TITLE "3:cjc154_2861"
    INDEX 01 04:35:13
  TRACK 149 AUDIO
    TITLE "2:cjc154_2862"
    INDEX 01 04:36:47
  TRACK 150 AUDIO
    TITLE "3:cjc154_2863"
    INDEX 01 04:38:17
  TRACK 151 AUDIO
    TITLE "2:cjc154_2864"
    INDEX 01 04:39:69
  TRACK 152 AUDIO
    TITLE "3:cjc154_2865"
    INDEX 01 04:41:33
  TRACK 153 AUDIO
    TITLE "2:cjc154_2866"
    INDEX 01 04:43:02
  TRACK 154 AUDIO
    TITLE "3:cjc154_2867"
    INDEX 01 04:44:66
  TRACK 155 AUDIO
    TITLE "2:cjc154_2868"
    INDEX 01 04:46:54
  TRACK 156 AUDIO
    TITLE "3:cjc154_2869"
    INDEX 01 04:48:07
  TRACK 157 AUDIO
    TITLE "2:cjc154_2870"
    INDEX 01 04:49:38
  TRACK 158 AUDIO
    TITLE "3:cjc154_2871"
    INDEX 01 04:51:37
  TRACK 159 AUDIO
    TITLE "2:cjc154_2872"
    INDEX 01 04:53:40
  TRACK 160 AUDIO
    TITLE "3:cjc154_2873"
    INDEX 01 04:54:45
  TRACK 161 AUDIO
    TITLE "2:cjc154_2874"
    INDEX 01 04:55:62
  TRACK 162 AUDIO
    TITLE "3:cjc154_2875"
    INDEX 01 04:57:59
  TRACK 163 AUDIO
    TITLE "2:cjc154_2876"
    INDEX 01 04:59:60
  TRACK 164 AUDIO
    TITLE "3:cjc154_2877"
    INDEX 01 05:01:26
  TRACK 165 AUDIO
    TITLE "2:cjc154_2878"
    INDEX 01 05:02:70
  TRACK 166 AUDIO
    TITLE "3:cjc154_2879"
    INDEX 01 05:05:02
  TRACK 167 AUDIO
    TITLE "2:cjc154_2880"
    INDEX 01 05:07:16
  TRACK 168 AUDIO
    TITLE "3:cjc154_2881"
    INDEX 01 05:08:69
  TRACK 169 AUDIO
    TITLE "2:cjc154_2882"
    INDEX 01 05:10:46
  TRACK 170 AUDIO
    TITLE "3:cjc154_2883"
    INDEX 01 05:12:61
  TRACK 171 AUDIO
    TITLE "2:cjc154_2884"
    INDEX 01 05:15:00
  TRACK 172 AUDIO
    TITLE "3:cjc154_2885"
    INDEX 01 05:16:41
  TRACK 173 AUDIO
    TITLE "2:cjc154_2886"
    INDEX 01 05:18:10
  TRACK 174 AUDIO
    TITLE "3:cjc154_2887"
    INDEX 01 05:20:13
  TRACK 175 AUDIO
    TITLE "2:cjc154_2888"
    INDEX 01 05:22:24
  TRACK 176 AUDIO
    TITLE "3:cjc154_2889"
    INDEX 01 05:24:19
  TRACK 177 AUDIO
    TITLE "2:cjc154_2890"
    INDEX 01 05:26:22
  TRACK 178 AUDIO
    TITLE "3:cjc154_2891"
    INDEX 01 05:27:62
  TRACK 179 AUDIO
    TITLE "2:cjc154_2892"
    INDEX 01 05:29:42
  TRACK 180 AUDIO
    TITLE "3:cjc154_2893"
    INDEX 01 05:31:54
  TRACK 181 AUDIO
    TITLE "2:cjc154_2894"
    INDEX 01 05:34:02
  TRACK 182 AUDIO
    TITLE "3:cjc154_2895"
    INDEX 01 05:35:42
  TRACK 183 AUDIO
    TITLE "2:cjc154_2896"
    INDEX 01 05:37:20
  TRACK 184 AUDIO
    TITLE "3:cjc154_2897"
    INDEX 01 05:39:09
  TRACK 185 AUDIO
    TITLE "2:cjc154_2898"
    INDEX 01 05:41:06
  TRACK 186 AUDIO
    TITLE "3:cjc154_2899"
    INDEX 01 05:43:01
  TRACK 187 AUDIO
    TITLE "2:cjc154_2900"
    INDEX 01 05:45:01
  TRACK 188 AUDIO
    TITLE "3:cjc154_2901"
    INDEX 01 05:46:42
  TRACK 189 AUDIO
    TITLE "2:cjc154_2902"
    INDEX 01 05:48:13
  TRACK 190 AUDIO
    TITLE "3:cjc154_2903"
    INDEX 01 05:50:34
  TRACK 191 AUDIO
    TITLE "2:cjc154_2904"
    INDEX 01 05:52:62
  TRACK 192 AUDIO
    TITLE "3:cjc154_2905"
    INDEX 01 05:54:34
  TRACK 193 AUDIO
    TITLE "2:cjc154_2906"
    INDEX 01 05:56:01
  TRACK 194 AUDIO
    TITLE "3:cjc154_2907"
    INDEX 01 05:58:02
  TRACK 195 AUDIO
    TITLE "2:cjc154_2908"
    INDEX 01 06:00:05
  TRACK 196 AUDIO
    TITLE "3:cjc154_2909"
    INDEX 01 06:02:29
  TRACK 197 AUDIO
    TITLE "2:cjc154_2910"
    INDEX 01 06:04:54
  TRACK 198 AUDIO
    TITLE "3:cjc154_2911"
    INDEX 01 06:06:41
  TRACK 199 AUDIO
    TITLE "2:cjc154_2912"
    INDEX 01 06:08:48
  TRACK 200 AUDIO
    TITLE "3:cjc154_2913"
    INDEX 01 06:10:50
  TRACK 201 AUDIO
    TITLE "2:cjc154_2914"
    INDEX 01 06:12:63
  TRACK 202 AUDIO
    TITLE "3:cjc154_2915"
    INDEX 01 06:13:72
  TRACK 203 AUDIO
    TITLE "2:cjc154_2916"
    INDEX 01 06:15:14
  TRACK 204 AUDIO
    TITLE "3:cjc154_2917"
    INDEX 01 06:17:13
  TRACK 205 AUDIO
    TITLE "2:cjc154_2918"
    INDEX 01 06:19:26
  TRACK 206 AUDIO
    TITLE "3:cjc154_2919"
    INDEX 01 06:21:17
  TRACK 207 AUDIO
    TITLE "2:cjc154_2920"
    INDEX 01 06:23:20
  TRACK 208 AUDIO
    TITLE "3:cjc154_2921"
    INDEX 01 06:25:28
  TRACK 209 AUDIO
    TITLE "2:cjc154_2922"
    INDEX 01 06:27:45
  TRACK 210 AUDIO
    TITLE "3:cjc154_2923"
    INDEX 01 06:29:12
  TRACK 211 AUDIO
    TITLE "2:cjc154_2924"
    INDEX 01 06:30:57
  TRACK 212 AUDIO
    TITLE "3:cjc154_2925"
    INDEX 01 06:32:36
  TRACK 213 AUDIO
    TITLE "2:cjc154_2926"
    INDEX 01 06:34:18
  TRACK 214 AUDIO
    TITLE "3:cjc154_2927"
    INDEX 01 06:35:72
  TRACK 215 AUDIO
    TITLE "2:cjc154_2928"
    INDEX 01 06:37:65
  TRACK 216 AUDIO
    TITLE "3:cjc154_2929"
    INDEX 01 06:39:52
  TRACK 217 AUDIO
    TITLE "2:cjc154_2930"
    INDEX 01 06:41:45
  TRACK 218 AUDIO
    TITLE "3:cjc154_2931"
    INDEX 01 06:43:20
  TRACK 219 AUDIO
    TITLE "2:cjc154_2932"
    INDEX 01 06:45:08
  TRACK 220 AUDIO
    TITLE "3:cjc154_2933"
    INDEX 01 06:47:51
  TRACK 221 AUDIO
    TITLE "2:cjc154_2934"
    INDEX 01 06:50:30
  TRACK 222 AUDIO
    TITLE "3:cjc154_2935"
    INDEX 01 06:52:02
  TRACK 223 AUDIO
    TITLE "2:cjc154_2936"
    INDEX 01 06:53:52
  TRACK 224 AUDIO
    TITLE "3:cjc154_2937"
    INDEX 01 06:56:13
  TRACK 225 AUDIO
    TITLE "2:cjc154_2938"
    INDEX 01 06:58:57
  TRACK 226 AUDIO
    TITLE "3:cjc154_2939"
    INDEX 01 07:00:13
  TRACK 227 AUDIO
    TITLE "2:cjc154_2940"
    INDEX 01 07:01:42
  TRACK 228 AUDIO
    TITLE "3:cjc154_2941"
    INDEX 01 07:03:02
  TRACK 229 AUDIO
    TITLE "2:cjc154_2942"
    INDEX 01 07:04:40
  TRACK 230 AUDIO
    TITLE "3:cjc154_2943"
    INDEX 01 07:06:47
  TRACK 231 AUDIO
    TITLE "2:cjc154_2944"
    INDEX 01 07:08:63
  TRACK 232 AUDIO
    TITLE "3:cjc154_2945"
    INDEX 01 07:11:36
  TRACK 233 AUDIO
    TITLE "2:cjc154_2946"
    INDEX 01 07:14:17
  TRACK 234 AUDIO
    TITLE "3:cjc154_2947"
    INDEX 01 07:16:49
  TRACK 235 AUDIO
    TITLE "2:cjc154_2948"
    INDEX 01 07:19:12
  TRACK 236 AUDIO
    TITLE "3:cjc154_2949"
    INDEX 01 07:20:35
  TRACK 237 AUDIO
    TITLE "2:cjc154_2950"
    INDEX 01 07:21:68
  TRACK 238 AUDIO
    TITLE "3:cjc154_2951"
    INDEX 01 07:23:02
  TRACK 239 AUDIO
    TITLE "2:cjc154_2952"
    INDEX 01 07:24:17
  TRACK 240 AUDIO
    TITLE "3:cjc154_2953"
    INDEX 01 07:26:05
  TRACK 241 AUDIO
    TITLE "2:cjc154_2954"
    INDEX 01 07:28:00
  TRACK 242 AUDIO
    TITLE "3:cjc154_2955"
    INDEX 01 07:29:54
  TRACK 243 AUDIO
    TITLE "2:cjc154_2956"
    INDEX 01 07:31:33
  TRACK 244 AUDIO
    TITLE "3:cjc154_2957"
    INDEX 01 07:32:35
  TRACK 245 AUDIO
    TITLE "2:cjc154_2958"
    INDEX 01 07:33:38
  TRACK 246 AUDIO
    TITLE "3:cjc154_2959"
    INDEX 01 07:35:41
  TRACK 247 AUDIO
    TITLE "2:cjc154_2960"
    INDEX 01 07:37:47
  TRACK 248 AUDIO
    TITLE "3:cjc154_2961"
    INDEX 01 07:39:29
  TRACK 249 AUDIO
    TITLE "2:cjc154_2962"
    INDEX 01 07:41:06
  TRACK 250 AUDIO
    TITLE "3:cjc154_2963"
    INDEX 01 07:42:35
  TRACK 251 AUDIO
    TITLE "2:cjc154_2964"
    INDEX 01 07:43:68
  TRACK 252 AUDIO
    TITLE "3:cjc154_2965"
    INDEX 01 07:46:48
  TRACK 253 AUDIO
    TITLE "2:cjc154_2966"
    INDEX 01 07:49:29
  TRACK 254 AUDIO
    TITLE "3:cjc154_2967"
    INDEX 01 07:51:26
  TRACK 255 AUDIO
    TITLE "2:cjc154_2968"
    INDEX 01 07:53:25
  TRACK 256 AUDIO
    TITLE "3:cjc154_2969"
    INDEX 01 07:54:48
  TRACK 257 AUDIO
    TITLE "2:cjc154_2970"
    INDEX 01 07:55:51
  TRACK 258 AUDIO
    TITLE "3:cjc154_2971"
    INDEX 01 07:57:52
  TRACK 259 AUDIO
    TITLE "2:cjc154_2972"
    INDEX 01 07:59:49
  TRACK 260 AUDIO
    TITLE "3:cjc154_2973"
    INDEX 01 08:01:68
  TRACK 261 AUDIO
    TITLE "2:cjc154_2974"
    INDEX 01 08:04:13
  TRACK 262 AUDIO
    TITLE "3:cjc154_2975"
    INDEX 01 08:05:48
  TRACK 263 AUDIO
    TITLE "0:"
    INDEX 01 08:07:07
